<svg xmlns="http://www.w3.org/2000/svg" xmlns:xlink="http://www.w3.org/1999/xlink" viewBox="0 0 1325.9 766.47"><defs><style>.cls-1,.cls-58{fill:none;}.cls-2{fill:url(#未命名的渐变_41);}.cls-3{fill:url(#未命名的渐变_41-2);}.cls-4{fill:url(#未命名的渐变_41-3);}.cls-5{fill:url(#未命名的渐变_41-4);}.cls-6{fill:url(#未命名的渐变_41-5);}.cls-7{fill:url(#未命名的渐变_41-6);}.cls-8{fill:url(#未命名的渐变_41-7);}.cls-9{fill:url(#未命名的渐变_41-8);}.cls-10{fill:url(#未命名的渐变_41-9);}.cls-11{fill:url(#未命名的渐变_41-10);}.cls-12{fill:url(#未命名的渐变_41-11);}.cls-13{fill:url(#未命名的渐变_41-12);}.cls-14{fill:#23e5ff;}.cls-15{fill:url(#未命名的渐变_41-13);}.cls-16{fill:url(#未命名的渐变_41-14);}.cls-17{fill:url(#未命名的渐变_41-15);}.cls-18{fill:url(#未命名的渐变_41-16);}.cls-19{fill:url(#未命名的渐变_41-17);}.cls-20{fill:url(#未命名的渐变_41-18);}.cls-21{fill:url(#未命名的渐变_41-19);}.cls-22{fill:url(#未命名的渐变_41-20);}.cls-23{fill:url(#未命名的渐变_41-21);}.cls-24{fill:url(#未命名的渐变_41-22);}.cls-25{fill:url(#未命名的渐变_41-23);}.cls-26{fill:url(#未命名的渐变_41-24);}.cls-27{fill:url(#未命名的渐变_41-25);}.cls-28{fill:url(#未命名的渐变_41-26);}.cls-29{fill:url(#未命名的渐变_41-27);}.cls-30{fill:url(#未命名的渐变_41-28);}.cls-31{fill:url(#未命名的渐变_41-29);}.cls-32{fill:url(#未命名的渐变_41-30);}.cls-33{fill:url(#未命名的渐变_41-31);}.cls-34{fill:url(#未命名的渐变_41-32);}.cls-35{fill:url(#未命名的渐变_41-33);}.cls-36{fill:url(#未命名的渐变_41-34);}.cls-37{fill:url(#未命名的渐变_35);}.cls-38{fill:url(#未命名的渐变_41-35);}.cls-39{fill:url(#未命名的渐变_37);}.cls-40{fill:url(#未命名的渐变_41-36);}.cls-41{fill:url(#未命名的渐变_41-37);}.cls-42{fill:url(#未命名的渐变_41-38);}.cls-43{fill:url(#未命名的渐变_41-39);}.cls-44,.cls-45{fill:#3e7fba;}.cls-44,.cls-59,.cls-60{isolation:isolate;}.cls-44{opacity:0.25;}.cls-45{stroke:#22c9fc;}.cls-45,.cls-58{stroke-miterlimit:10;}.cls-46{fill:#fffe38;}.cls-47{fill:#7c86c4;}.cls-48{fill:#8f82bb;}.cls-49{fill:#77cded;}.cls-50{fill:#85e3f6;}.cls-51{fill:#5cff90;}.cls-52{fill:#5de1a7;}.cls-53{fill:#84f499;}.cls-54{fill:#70e88c;}.cls-55{fill:#9cff73;}.cls-56{fill:#9aee8d;}.cls-57{fill:#ffef53;}.cls-58{stroke:#0e9aff;}.cls-59{font-size:32.32px;font-family:Fontquan-XinYilogoTi-Regular, Fontquan-XinYilogoTi;letter-spacing:0.13em;}.cls-59,.cls-60{fill:#0d9bff;}.cls-60{font-size:28.94px;font-family:lianmengqiyilushuaizhengruiheiti-Regular, lianmengqiyilushuaizhengruiheiti;letter-spacing:0.13em;}</style><linearGradient id="未命名的渐变_41" x1="167.78" y1="612.36" x2="247.19" y2="612.36" gradientTransform="matrix(1, 0, 0, -1, 0, 768.01)" gradientUnits="userSpaceOnUse"><stop offset="0" stop-color="#23e5ff"/><stop offset="0.01" stop-color="#23e5ff"/><stop offset="1" stop-color="#001ff3"/></linearGradient><linearGradient id="未命名的渐变_41-2" x1="191.53" y1="590.28" x2="259" y2="590.28" xlink:href="#未命名的渐变_41"/><linearGradient id="未命名的渐变_41-3" x1="152.91" y1="587.24" x2="224.82" y2="587.24" xlink:href="#未命名的渐变_41"/><linearGradient id="未命名的渐变_41-4" x1="175.5" y1="568.66" x2="250.46" y2="568.66" xlink:href="#未命名的渐变_41"/><linearGradient id="未命名的渐变_41-5" x1="180" y1="595.79" x2="231.76" y2="595.79" xlink:href="#未命名的渐变_41"/><linearGradient id="未命名的渐变_41-6" x1="1089.32" y1="5651.22" x2="1089.32" y2="5777.87" gradientTransform="translate(-6.84 -5567.59)" xlink:href="#未命名的渐变_41"/><linearGradient id="未命名的渐变_41-7" x1="50.55" y1="355.52" x2="143.39" y2="355.52" xlink:href="#未命名的渐变_41"/><linearGradient id="未命名的渐变_41-8" x1="116.11" y1="384.44" x2="178.01" y2="384.44" xlink:href="#未命名的渐变_41"/><linearGradient id="未命名的渐变_41-9" x1="50.55" y1="413.36" x2="143.44" y2="413.36" xlink:href="#未命名的渐变_41"/><linearGradient id="未命名的渐变_41-10" x1="1185.76" y1="235.46" x2="1293.04" y2="235.46" xlink:href="#未命名的渐变_41"/><linearGradient id="未命名的渐变_41-11" x1="0" y1="203.68" x2="59.26" y2="203.68" xlink:href="#未命名的渐变_41"/><linearGradient id="未命名的渐变_41-12" x1="37.7" y1="219.05" x2="64.64" y2="219.05" xlink:href="#未命名的渐变_41"/><linearGradient id="未命名的渐变_41-13" x1="40.19" y1="211.41" x2="63.95" y2="211.41" xlink:href="#未命名的渐变_41"/><linearGradient id="未命名的渐变_41-14" x1="0" y1="196.04" x2="65.25" y2="196.04" xlink:href="#未命名的渐变_41"/><linearGradient id="未命名的渐变_41-15" x1="0" y1="173.02" x2="66.13" y2="173.02" xlink:href="#未命名的渐变_41"/><linearGradient id="未命名的渐变_41-16" x1="44.03" y1="188.41" x2="67.87" y2="188.41" xlink:href="#未命名的渐变_41"/><linearGradient id="未命名的渐变_41-17" x1="0" y1="234.46" x2="57.3" y2="234.46" xlink:href="#未命名的渐变_41"/><linearGradient id="未命名的渐变_41-18" x1="35.5" y1="180.75" x2="67.98" y2="180.75" xlink:href="#未命名的渐变_41"/><linearGradient id="未命名的渐变_41-19" x1="0" y1="226.7" x2="63.39" y2="226.7" xlink:href="#未命名的渐变_41"/><linearGradient id="未命名的渐变_41-20" x1="0" y1="165.38" x2="59.7" y2="165.38" xlink:href="#未命名的渐变_41"/><linearGradient id="未命名的渐变_41-21" x1="82.42" y1="196.05" x2="105.22" y2="196.05" xlink:href="#未命名的渐变_41"/><linearGradient id="未命名的渐变_41-22" x1="82.42" y1="188.38" x2="105.22" y2="188.38" xlink:href="#未命名的渐变_41"/><linearGradient id="未命名的渐变_41-23" x1="82.42" y1="234.46" x2="105.22" y2="234.46" xlink:href="#未命名的渐变_41"/><linearGradient id="未命名的渐变_41-24" x1="82.42" y1="180.71" x2="105.22" y2="180.71" xlink:href="#未命名的渐变_41"/><linearGradient id="未命名的渐变_41-25" x1="82.42" y1="226.72" x2="105.22" y2="226.72" xlink:href="#未命名的渐变_41"/><linearGradient id="未命名的渐变_41-26" x1="82.42" y1="219.06" x2="105.22" y2="219.06" xlink:href="#未命名的渐变_41"/><linearGradient id="未命名的渐变_41-27" x1="82.42" y1="211.39" x2="105.22" y2="211.39" xlink:href="#未命名的渐变_41"/><linearGradient id="未命名的渐变_41-28" x1="82.42" y1="203.72" x2="105.22" y2="203.72" xlink:href="#未命名的渐变_41"/><linearGradient id="未命名的渐变_41-29" x1="82.42" y1="173.05" x2="105.22" y2="173.05" xlink:href="#未命名的渐变_41"/><linearGradient id="未命名的渐变_41-30" x1="82.42" y1="165.38" x2="105.22" y2="165.38" xlink:href="#未命名的渐变_41"/><linearGradient id="未命名的渐变_41-31" x1="0" y1="163.14" x2="45.63" y2="163.14" xlink:href="#未命名的渐变_41"/><linearGradient id="未命名的渐变_41-32" x1="82.42" y1="163.14" x2="105.22" y2="163.14" xlink:href="#未命名的渐变_41"/><linearGradient id="未命名的渐变_41-33" x1="1160.44" y1="416.37" x2="1164.31" y2="416.37" xlink:href="#未命名的渐变_41"/><linearGradient id="未命名的渐变_41-34" x1="1100.91" y1="400.96" x2="1150.64" y2="400.96" xlink:href="#未命名的渐变_41"/><linearGradient id="未命名的渐变_35" x1="1157.37" y1="422.34" x2="1179.54" y2="422.34" gradientTransform="matrix(1, 0, 0, -1, 0, 768.01)" gradientUnits="userSpaceOnUse"><stop offset="0.01" stop-color="#084cf6"/><stop offset="1" stop-color="#001ff3"/></linearGradient><linearGradient id="未命名的渐变_41-35" x1="1224.08" y1="472.11" x2="1122.93" y2="483.18" xlink:href="#未命名的渐变_41"/><linearGradient id="未命名的渐变_37" x1="1232.99" y1="387.5" x2="1174.38" y2="446.1" gradientTransform="matrix(1, 0, 0, -1, 0, 768.01)" gradientUnits="userSpaceOnUse"><stop offset="0" stop-color="#23e5ff"/><stop offset="0.01" stop-color="#23e5ff"/><stop offset="0.19" stop-color="#22e2ff"/><stop offset="0.33" stop-color="#21d8fe"/><stop offset="0.46" stop-color="#1ec7fd"/><stop offset="0.59" stop-color="#19affc"/><stop offset="0.71" stop-color="#1490fa"/><stop offset="0.82" stop-color="#0d6af8"/><stop offset="0.93" stop-color="#053ef5"/><stop offset="1" stop-color="#001ff3"/></linearGradient><linearGradient id="未命名的渐变_41-36" x1="-2900.98" y1="4966.29" x2="-2880.87" y2="4927.35" gradientTransform="matrix(-0.89, -0.46, -0.46, 0.89, 869.21, -5413.17)" xlink:href="#未命名的渐变_41"/><linearGradient id="未命名的渐变_41-37" x1="1177.57" y1="403.35" x2="1122.11" y2="458.82" xlink:href="#未命名的渐变_41"/><linearGradient id="未命名的渐变_41-38" x1="-2907.66" y1="4937.3" x2="-2867.73" y2="4937.3" gradientTransform="matrix(-0.89, -0.46, -0.46, 0.89, 869.21, -5413.17)" xlink:href="#未命名的渐变_41"/><linearGradient id="未命名的渐变_41-39" x1="1105.25" y1="469.57" x2="1178.1" y2="469.57" xlink:href="#未命名的渐变_41"/></defs><g id="图层_2" data-name="图层 2"><g id="图层_1-2" data-name="图层 1"><g id="图层_2-2" data-name="图层 2"><g id="图层_1-2-2" data-name="图层 1-2"><path class="cls-1" d="M235.84,160.7a68.92,68.92,0,0,0-7-7.88,35.68,35.68,0,0,0-37.33-5.26,69.29,69.29,0,0,0-8.75,5.53A35.65,35.65,0,0,0,171.43,189a70,70,0,0,0,3.86,9.31,35.66,35.66,0,0,0,48.88,12.47l.67-.4a73.29,73.29,0,0,0,8-6.82,35.62,35.62,0,0,0,3-42.9Z"/><path class="cls-2" d="M245.8,141.93l-28.92-16.71a21.86,21.86,0,0,0-21.82,0l-12.42,7.18-.52.3-8.1,4.67a70.91,70.91,0,0,0-6.24,29.15V168a70.81,70.81,0,0,0,3.63,21,35.66,35.66,0,0,1,11.34-35.95,70.77,70.77,0,0,1,28.87-12.64l.57-.11a71.31,71.31,0,0,1,35,2.4Z"/><path class="cls-3" d="M254.23,148.52l-.35-.43a21.67,21.67,0,0,0-5.78-4.84l-.88-.51a71.31,71.31,0,0,0-35-2.4l-.57.11a70.27,70.27,0,0,0-20.12,7.11,35.68,35.68,0,0,1,37.33,5.26,71.66,71.66,0,0,1,18.51,30.24l.15.52a71.36,71.36,0,0,1,1.87,32.7l.38-.26A21.84,21.84,0,0,0,259,198.19V162.14A21.8,21.8,0,0,0,254.23,148.52Z"/><path class="cls-4" d="M206,215.82a35.67,35.67,0,0,1-30.68-17.47A71,71,0,0,1,167.8,168v-1.49a70.87,70.87,0,0,1,6.2-29.15l-.53.31-9.65,5.57a21.8,21.8,0,0,0-10.91,18.89v36.05a22,22,0,0,0,.79,5.81c.08.28.16.56.25.83a21.82,21.82,0,0,0,9.87,12.25l11.66,6.73a71.24,71.24,0,0,0,7.3.38,73.52,73.52,0,0,0,12.39-1.08l.48-.09a70.93,70.93,0,0,0,29.17-12.6A35.47,35.47,0,0,1,206,215.82Z"/><path class="cls-5" d="M247.51,183.58l-.15-.52a70.94,70.94,0,0,0-11.52-22.36,35.62,35.62,0,0,1-3,42.9A71.5,71.5,0,0,1,195.67,223l-.48.09a73.52,73.52,0,0,1-12.39,1.08,71.24,71.24,0,0,1-7.3-.38l.67.39,18.89,10.91a21.86,21.86,0,0,0,21.82,0l.56-.33.4-.23,30.26-17.47c.44-.25.86-.52,1.28-.8a71.36,71.36,0,0,0-1.87-32.7Z"/><path class="cls-6" d="M230.54,191.85a1.28,1.28,0,0,0,1.22-1.34,1.27,1.27,0,0,0-.22-.66l-13-18.23.08-.12-.29-.18-12.64-17.71a2.57,2.57,0,0,0-3.59-.58,2.47,2.47,0,0,0-.7.77l-21.22,36.12a1.28,1.28,0,0,0,1.11,1.93h5.05a1.29,1.29,0,0,0,1.11-.64l14.54-25a2.56,2.56,0,0,1,3.5-.93,2.47,2.47,0,0,1,.79.72l3.12,4.3a2.57,2.57,0,0,1,.1,2.84l-10.3,16.75a1.26,1.26,0,0,0,.34,1.77,1.33,1.33,0,0,0,.75.23h5a1.33,1.33,0,0,0,1.09-.61l7.36-11.85a1.28,1.28,0,0,1,1.78-.4,1.22,1.22,0,0,1,.35.33l8.61,12a1.31,1.31,0,0,0,1,.54Z"/><path class="cls-7" d="M1054.62,153a14.93,14.93,0,0,0,20.67,4.23l23.8-15.67a4.68,4.68,0,1,1,5.09,7.86L1080.44,165a24.25,24.25,0,1,1-26.74-40.47h.09l47.58-30-18.9-10.91-54.85,31.67v63.34l26.07,15.07,59.3-37.64a14.92,14.92,0,0,0-16.48-24.88l-23.72,15.68a4.67,4.67,0,1,1-5.15-7.8h0l23.73-15.67a24.27,24.27,0,0,1,26.73,40.52h0l-55.24,35,19.65,11.36,54.83-31.67V115.33l-26.83-15.48-51.71,32.49A15,15,0,0,0,1054.62,153Z"/><polygon class="cls-8" points="143.39 439.3 81.5 439.3 50.55 385.69 112.44 385.69 116.66 393 62.79 392.75 85.58 432.23 131.16 432.23 121.81 416.02 97.26 416.02 93.14 408.95 125.89 408.95 143.39 439.3"/><polygon class="cls-9" points="147.06 437.18 142.67 429.57 169.85 383.57 158.36 363.67 129.95 407.51 116.11 383.57 147.06 329.96 151.44 337.55 124.01 384.13 130.25 393.9 158.65 350.04 178.01 383.57 147.06 437.18"/><path class="cls-10" d="M112.44,381.46H50.55l31-53.6h61.89Zm-49.65-7.07h45.57l22.8-39.47H85.58Z"/><path class="cls-11" d="M1239.4,479.3a53.61,53.61,0,0,0-31.28,97.17V559.91a42.38,42.38,0,0,0,17.61,4.57v20.31a43.77,43.77,0,0,0,4.87,1V564.5a61.42,61.42,0,0,0,17.6-3.35v24.67c1.65-.27,3.28-.61,4.87-1V559.23a57.4,57.4,0,0,0,17.61-11.88v29.12a53.61,53.61,0,0,0-31.28-97.17Zm-31.28,80.49V540l17.61-15v36.48A49.85,49.85,0,0,1,1208.12,559.79Zm33.52-1.5a62.26,62.26,0,0,1-11,2.72V511.75l17.6-15v58.79A65.59,65.59,0,0,1,1241.64,558.29Zm11.43-5.31V516.22L1270.63,536c-3.76,6.46-9.83,12.39-17.56,17Z"/><path class="cls-12" d="M52.63,566a20.09,20.09,0,0,0,6.63-3.64H0v3.94H53.62A4.2,4.2,0,0,0,52.63,566Z"/><path class="cls-13" d="M42,550.94H64.55c0-.37.09-.71.09-1.09a18.23,18.23,0,0,0-.28-2.86H37.7a6.61,6.61,0,0,1,2.55,1.25A5.67,5.67,0,0,1,42,550.94Z"/><rect class="cls-14" y="585.34" width="22.95" height="3.94"/><path class="cls-15" d="M42.22,554.66a6.14,6.14,0,0,1-2,3.9l-.06.05H62.34a15.74,15.74,0,0,0,1.61-4Z"/><path class="cls-16" d="M64.31,572.53A15.29,15.29,0,0,0,61.62,570H0V574H65.25A15.17,15.17,0,0,0,64.31,572.53Z"/><rect class="cls-14" y="577.66" width="22.95" height="3.95"/><path class="cls-17" d="M65.39,594.5c.28-.49.5-1,.74-1.5H0v4H63.68A21.23,21.23,0,0,0,65.39,594.5Z"/><path class="cls-18" d="M67.87,581.61a20.11,20.11,0,0,0-.8-4H44a6.7,6.7,0,0,1,1.22,4Z"/><rect class="cls-14" y="546.99" width="22.95" height="3.94"/><path class="cls-19" d="M42.59,531.52H0v4.08H57.3C53.62,532.94,48.77,531.52,42.59,531.52Z"/><path class="cls-20" d="M44.34,585.34a6.89,6.89,0,0,1-1.5,1.9c-1.47,1.27-4,1.93-7.34,2h32A21.08,21.08,0,0,0,68,585.3Z"/><path class="cls-21" d="M61.19,539.32H0v4H63.39A16.08,16.08,0,0,0,61.19,539.32Z"/><rect class="cls-14" y="554.66" width="22.95" height="3.94"/><path class="cls-22" d="M49.47,604.14a24.28,24.28,0,0,0,8.64-2.41,19.09,19.09,0,0,0,1.59-1.06H0v3.94H45.63C46.79,604.48,48,604.33,49.47,604.14Z"/><rect class="cls-23" x="82.42" y="570" width="22.8" height="3.94"/><rect class="cls-24" x="82.42" y="577.66" width="22.8" height="3.95"/><rect class="cls-25" x="82.42" y="531.52" width="22.8" height="4.08"/><rect class="cls-26" x="82.42" y="585.34" width="22.8" height="3.94"/><rect class="cls-27" x="82.42" y="539.32" width="22.8" height="3.95"/><rect class="cls-28" x="82.42" y="546.99" width="22.8" height="3.94"/><rect class="cls-29" x="82.42" y="554.66" width="22.8" height="3.94"/><rect class="cls-30" x="82.42" y="562.33" width="22.8" height="3.94"/><rect class="cls-31" x="82.42" y="593" width="22.8" height="3.94"/><rect class="cls-32" x="82.42" y="600.67" width="22.8" height="3.94"/><path class="cls-33" d="M39.27,605.14c1.21,0,3.35-.18,6.36-.53H0v.53Z"/><rect class="cls-34" x="82.42" y="604.61" width="22.8" height="0.53"/><path class="cls-35" d="M1160.44,349.78l.68.68c1,1,2.1,2.05,3.19,3.06q-1.65-1.51-3.19-3.06Z"/><path class="cls-36" d="M1149.56,371.86c-1.4-.69-2.76-1.42-4.11-2.15a115.49,115.49,0,0,1-14.66-9.5c-1.3.46-2.62.91-4,1.34a114.08,114.08,0,0,1-25.88,5.09c12.3,6.82,30.27,9.07,49.73,5.77l-.87-.42Z"/><path class="cls-37" d="M1178.7,339.59a46.94,46.94,0,0,0-3.65-10.45A73.07,73.07,0,0,1,1159.37,345l-2,1.47c1,1.11,2,2.23,3.06,3.32l.68.68c1,1,2.1,2,3.19,3.06a104.43,104.43,0,0,0,10.88,8.67c.49-.75.94-1.52,1.36-2.32C1179.68,353.8,1180.27,346.85,1178.7,339.59Z"/><path class="cls-38" d="M1108.27,279.77a117.26,117.26,0,0,1,36.67,16.47q2.7-1.23,5.5-2.31c1.44-.55,2.88-1.09,4.35-1.59l.27-.1a114.94,114.94,0,0,1,16.4-4.28C1148.4,276.56,1124.65,274,1108.27,279.77Z"/><path class="cls-39" d="M1203.82,312a99.17,99.17,0,0,0-13.09-12c-2.78,1.06-5.48,2.21-8.09,3.43a105.92,105.92,0,0,0-17.7,10.5,69.84,69.84,0,0,1,10.11,15.22,46.94,46.94,0,0,1,3.65,10.45c1.57,7.26,1,14.21-2.15,20.28-.42.8-.87,1.57-1.36,2.32,1,.66,1.92,1.32,2.91,2a103.17,103.17,0,0,0,22.44-13.28,68.16,68.16,0,0,0,16.5-18.19A68.32,68.32,0,0,0,1203.82,312Z"/><path class="cls-40" d="M1154.76,292.34c-1.47.5-2.91,1-4.35,1.59-.6.6-1.17,1.22-1.71,1.87s-1,1.31-1.53,2a25.14,25.14,0,0,0-1.94,3.29c-3,6.12-3.48,13.09-1.78,20.31a48.17,48.17,0,0,0,3.85,10.38,73,73,0,0,1,15.38-16.14c.74-.58,1.49-1.15,2.26-1.72a105.92,105.92,0,0,1,17.7-10.5c2.61-1.22,5.31-2.37,8.09-3.43a115,115,0,0,0-13.12-8.74c-1.34-.76-2.69-1.5-4.07-2.22l-.25-.13c-.62-.32-1.24-.64-1.86-.94a114.94,114.94,0,0,0-16.4,4.28Z"/><path class="cls-41" d="M1164.31,353.52q-1.65-1.51-3.19-3.06l-.68-.68c-1.07-1.09-2.08-2.21-3.06-3.32a70.21,70.21,0,0,1-10.08-14.68,48.17,48.17,0,0,1-3.85-10.38c-1.7-7.22-1.24-14.19,1.78-20.31a25.14,25.14,0,0,1,1.94-3.29c.48-.69,1-1.36,1.53-2s1.11-1.27,1.71-1.87c-1.87.72-3.71,1.49-5.5,2.31a103.2,103.2,0,0,0-23.5,14.29A68.22,68.22,0,0,0,1105.25,329a68.16,68.16,0,0,0,13.61,20.44,97.35,97.35,0,0,0,11.93,10.75,115.49,115.49,0,0,0,14.66,9.5c1.35.73,2.71,1.46,4.11,2.15l.25.13.87.42a117.38,117.38,0,0,0,15.9-3.88l.27-.09c1.48-.48,2.94-1,4.38-1.51,2.36-.86,4.64-1.8,6.87-2.78-1-.64-2-1.3-2.91-2A105,105,0,0,1,1164.31,353.52Z"/><path class="cls-42" d="M1148.7,295.8c-.54.64-1,1.31-1.53,2a25.14,25.14,0,0,0-1.94,3.29,25.14,25.14,0,0,1,1.94-3.29C1147.65,297.11,1148.16,296.44,1148.7,295.8Z"/><path class="cls-43" d="M1148.7,295.8c-.54.64-1,1.31-1.53,2a25.14,25.14,0,0,0-1.94,3.29,25.14,25.14,0,0,1,1.94-3.29C1147.65,297.11,1148.16,296.44,1148.7,295.8Z"/><polygon class="cls-44" points="928.31 766.47 1087.93 572.63 267.04 572.63 122.21 766.47 928.31 766.47"/><polygon class="cls-45" points="676.31 1.1 316.25 615.04 676.31 752 960.97 662.75 676.31 1.1"/><polygon class="cls-46" points="670.5 270.06 670.5 77.23 576.2 238.03 668.76 270.63 670.5 270.06"/><polygon class="cls-47" points="408.62 523.76 434.7 479.3 365.95 596.53 670.5 712.36 670.5 616.66 408.62 523.76"/><polygon class="cls-48" points="840.2 471.68 840.2 471.68 872.06 545.75 670.5 616.66 670.5 712.36 911.27 636.88 840.2 471.68"/><polyline class="cls-49" points="668.76 532 449.42 454.19 434.7 479.3 408.62 523.76 670.5 616.66"/><polygon class="cls-50" points="670.5 616.66 872.06 545.75 840.2 471.68 668.76 532 670.5 616.66"/><polygon class="cls-51" points="488.77 387.1 453.44 447.32 449.42 454.19 668.76 532 668.76 523.16 668.76 450.94 488.77 387.1"/><polygon class="cls-52" points="839.18 469.31 809.91 401.27 670.5 450.33 668.76 450.94 668.76 523.16 668.76 532 670.5 531.38 840.2 471.68 839.18 469.31"/><polygon class="cls-53" points="531.21 314.73 494.3 377.67 488.77 387.1 668.76 450.94 668.76 439.11 668.76 363.51 531.21 314.73"/><polygon class="cls-54" points="806.99 394.48 777.25 325.36 670.5 362.9 668.76 363.51 668.76 439.11 668.76 450.94 670.5 450.33 809.91 401.27 806.99 394.48"/><polygon class="cls-55" points="576.2 238.03 533.7 310.49 531.21 314.73 668.76 363.51 668.76 358.05 668.76 270.63 576.2 238.03"/><polygon class="cls-56" points="776.37 323.31 743.34 246.54 670.5 270.06 668.76 270.63 668.76 358.05 668.76 363.51 670.5 362.9 777.25 325.36 776.37 323.31"/><polygon class="cls-57" points="670.5 77.23 743.34 246.54 668.76 270.63 670.5 77.23"/><line class="cls-58" x1="706.05" y1="173.93" x2="1004.56" y2="173.93"/><line class="cls-58" x1="213.68" y1="427.71" x2="482" y2="427.71"/><line class="cls-58" x1="294.63" y1="259.25" x2="578.77" y2="259.25"/><line class="cls-58" x1="154.23" y1="562.33" x2="401" y2="562.33"/><text class="cls-59" transform="translate(1040.62 254.4)">xx</text><text class="cls-59" transform="translate(72.42 479.3)">xx</text><text class="cls-59" transform="translate(32.15 653.31)">xx</text><line class="cls-58" x1="779.4" y1="348.61" x2="1069.2" y2="348.61"/><line class="cls-58" x1="840.2" y1="510.99" x2="1146.23" y2="510.99"/><text class="cls-60" transform="translate(1072.96 427.71)">xx</text><text class="cls-60" transform="translate(1153.51 616.66)">xx</text><text class="cls-60" transform="translate(154.34 276.8)">xx</text></g></g></g></g></svg>